<mxfile host="app.diagrams.net" modified="2023-05-05T07:22:09.659Z" agent="Mozilla/5.0 (X11; Linux x86_64) AppleWebKit/537.36 (KHTML, like Gecko) Chrome/101.0.0.0 Safari/537.36" etag="Ner8oKJkEtMW54YZUW3i" version="21.2.7" type="device">
  <diagram name="PÃ¡gina-1" id="pKg81f2gCyS8f13GSDu7">
    <mxGraphModel dx="1199" dy="663" grid="1" gridSize="10" guides="1" tooltips="1" connect="1" arrows="1" fold="1" page="1" pageScale="1" pageWidth="827" pageHeight="1169" math="0" shadow="0">
      <root>
        <mxCell id="0" />
        <mxCell id="1" parent="0" />
        <mxCell id="TVhmCK1QDhyFKudb4yv_-14" style="edgeStyle=orthogonalEdgeStyle;rounded=0;orthogonalLoop=1;jettySize=auto;html=1;" parent="1" source="0aDVTXw7b1kCWrRwDKC4-12" target="TVhmCK1QDhyFKudb4yv_-8" edge="1">
          <mxGeometry relative="1" as="geometry" />
        </mxCell>
        <mxCell id="TVhmCK1QDhyFKudb4yv_-15" style="rounded=0;orthogonalLoop=1;jettySize=auto;html=1;exitX=1;exitY=0;exitDx=0;exitDy=0;entryX=0;entryY=1;entryDx=0;entryDy=0;startArrow=none;" parent="1" source="TVhmCK1QDhyFKudb4yv_-53" target="TVhmCK1QDhyFKudb4yv_-7" edge="1">
          <mxGeometry relative="1" as="geometry" />
        </mxCell>
        <mxCell id="TVhmCK1QDhyFKudb4yv_-5" value="JUGADOR&lt;br&gt;" style="whiteSpace=wrap;html=1;align=center;" parent="1" vertex="1">
          <mxGeometry x="260" y="310" width="100" height="40" as="geometry" />
        </mxCell>
        <mxCell id="TVhmCK1QDhyFKudb4yv_-12" style="edgeStyle=orthogonalEdgeStyle;rounded=0;orthogonalLoop=1;jettySize=auto;html=1;entryX=0.5;entryY=0;entryDx=0;entryDy=0;" parent="1" source="TVhmCK1QDhyFKudb4yv_-7" target="TVhmCK1QDhyFKudb4yv_-8" edge="1">
          <mxGeometry relative="1" as="geometry" />
        </mxCell>
        <mxCell id="TVhmCK1QDhyFKudb4yv_-7" value="TORNEO&lt;br&gt;" style="whiteSpace=wrap;html=1;align=center;" parent="1" vertex="1">
          <mxGeometry x="530" y="190" width="100" height="40" as="geometry" />
        </mxCell>
        <mxCell id="TVhmCK1QDhyFKudb4yv_-8" value="PREMIO&lt;br&gt;" style="whiteSpace=wrap;html=1;align=center;" parent="1" vertex="1">
          <mxGeometry x="530" y="310" width="100" height="40" as="geometry" />
        </mxCell>
        <mxCell id="TVhmCK1QDhyFKudb4yv_-25" style="edgeStyle=none;rounded=0;orthogonalLoop=1;jettySize=auto;html=1;exitX=1;exitY=0.5;exitDx=0;exitDy=0;entryX=0;entryY=1;entryDx=0;entryDy=0;" parent="1" source="TVhmCK1QDhyFKudb4yv_-18" target="TVhmCK1QDhyFKudb4yv_-5" edge="1">
          <mxGeometry relative="1" as="geometry" />
        </mxCell>
        <mxCell id="TVhmCK1QDhyFKudb4yv_-18" value="nombre_jug" style="ellipse;whiteSpace=wrap;html=1;align=center;" parent="1" vertex="1">
          <mxGeometry x="150" y="370" width="70" height="40" as="geometry" />
        </mxCell>
        <mxCell id="TVhmCK1QDhyFKudb4yv_-23" style="edgeStyle=none;rounded=0;orthogonalLoop=1;jettySize=auto;html=1;entryX=0.401;entryY=1.039;entryDx=0;entryDy=0;entryPerimeter=0;" parent="1" source="TVhmCK1QDhyFKudb4yv_-20" target="TVhmCK1QDhyFKudb4yv_-5" edge="1">
          <mxGeometry relative="1" as="geometry" />
        </mxCell>
        <mxCell id="TVhmCK1QDhyFKudb4yv_-20" value="club" style="ellipse;whiteSpace=wrap;html=1;align=center;" parent="1" vertex="1">
          <mxGeometry x="230" y="390" width="60" height="30" as="geometry" />
        </mxCell>
        <mxCell id="TVhmCK1QDhyFKudb4yv_-26" style="edgeStyle=none;rounded=0;orthogonalLoop=1;jettySize=auto;html=1;" parent="1" source="TVhmCK1QDhyFKudb4yv_-22" target="TVhmCK1QDhyFKudb4yv_-5" edge="1">
          <mxGeometry relative="1" as="geometry" />
        </mxCell>
        <mxCell id="TVhmCK1QDhyFKudb4yv_-22" value="fide_id" style="ellipse;whiteSpace=wrap;html=1;align=center;fontStyle=4;fillColor=#66BDFF;" parent="1" vertex="1">
          <mxGeometry x="310" y="390" width="50" height="30" as="geometry" />
        </mxCell>
        <mxCell id="TVhmCK1QDhyFKudb4yv_-34" style="edgeStyle=none;rounded=0;orthogonalLoop=1;jettySize=auto;html=1;entryX=1;entryY=0;entryDx=0;entryDy=0;" parent="1" source="TVhmCK1QDhyFKudb4yv_-31" target="TVhmCK1QDhyFKudb4yv_-7" edge="1">
          <mxGeometry relative="1" as="geometry" />
        </mxCell>
        <mxCell id="TVhmCK1QDhyFKudb4yv_-31" value="fec_ini" style="ellipse;whiteSpace=wrap;html=1;align=center;" parent="1" vertex="1">
          <mxGeometry x="640" y="130" width="60" height="30" as="geometry" />
        </mxCell>
        <mxCell id="TVhmCK1QDhyFKudb4yv_-33" style="edgeStyle=none;rounded=0;orthogonalLoop=1;jettySize=auto;html=1;entryX=1;entryY=0.5;entryDx=0;entryDy=0;" parent="1" source="TVhmCK1QDhyFKudb4yv_-32" target="TVhmCK1QDhyFKudb4yv_-7" edge="1">
          <mxGeometry relative="1" as="geometry" />
        </mxCell>
        <mxCell id="TVhmCK1QDhyFKudb4yv_-32" value="fec_fin" style="ellipse;whiteSpace=wrap;html=1;align=center;" parent="1" vertex="1">
          <mxGeometry x="670" y="160" width="60" height="30" as="geometry" />
        </mxCell>
        <mxCell id="TVhmCK1QDhyFKudb4yv_-36" style="edgeStyle=none;rounded=0;orthogonalLoop=1;jettySize=auto;html=1;exitX=0;exitY=0.5;exitDx=0;exitDy=0;entryX=1;entryY=0.75;entryDx=0;entryDy=0;" parent="1" source="TVhmCK1QDhyFKudb4yv_-57" target="TVhmCK1QDhyFKudb4yv_-7" edge="1">
          <mxGeometry relative="1" as="geometry">
            <mxPoint x="680" y="210" as="sourcePoint" />
          </mxGeometry>
        </mxCell>
        <mxCell id="TVhmCK1QDhyFKudb4yv_-42" style="edgeStyle=none;rounded=0;orthogonalLoop=1;jettySize=auto;html=1;entryX=0;entryY=1;entryDx=0;entryDy=0;exitX=0.5;exitY=0;exitDx=0;exitDy=0;endArrow=none;endFill=0;" parent="1" source="0aDVTXw7b1kCWrRwDKC4-27" target="TVhmCK1QDhyFKudb4yv_-8" edge="1">
          <mxGeometry relative="1" as="geometry">
            <mxPoint x="508.52499999999986" y="396.7249999999999" as="sourcePoint" />
          </mxGeometry>
        </mxCell>
        <mxCell id="TVhmCK1QDhyFKudb4yv_-45" style="edgeStyle=none;rounded=0;orthogonalLoop=1;jettySize=auto;html=1;entryX=0.5;entryY=1;entryDx=0;entryDy=0;endArrow=none;endFill=0;" parent="1" source="TVhmCK1QDhyFKudb4yv_-44" target="TVhmCK1QDhyFKudb4yv_-8" edge="1">
          <mxGeometry relative="1" as="geometry" />
        </mxCell>
        <mxCell id="TVhmCK1QDhyFKudb4yv_-44" value="tipo_premio" style="ellipse;whiteSpace=wrap;html=1;align=center;" parent="1" vertex="1">
          <mxGeometry x="512.5" y="420" width="80" height="40" as="geometry" />
        </mxCell>
        <mxCell id="TVhmCK1QDhyFKudb4yv_-54" value="" style="rounded=0;orthogonalLoop=1;jettySize=auto;html=1;exitX=1;exitY=0;exitDx=0;exitDy=0;entryX=0;entryY=0.5;entryDx=0;entryDy=0;endArrow=none;" parent="1" source="TVhmCK1QDhyFKudb4yv_-5" target="TVhmCK1QDhyFKudb4yv_-53" edge="1">
          <mxGeometry relative="1" as="geometry">
            <mxPoint x="360" y="310" as="sourcePoint" />
            <mxPoint x="530" y="230" as="targetPoint" />
          </mxGeometry>
        </mxCell>
        <mxCell id="TVhmCK1QDhyFKudb4yv_-56" style="rounded=0;orthogonalLoop=1;jettySize=auto;html=1;exitX=0.5;exitY=0;exitDx=0;exitDy=0;entryX=0.5;entryY=1;entryDx=0;entryDy=0;endArrow=none;endFill=0;" parent="1" source="TVhmCK1QDhyFKudb4yv_-53" target="TVhmCK1QDhyFKudb4yv_-55" edge="1">
          <mxGeometry relative="1" as="geometry" />
        </mxCell>
        <mxCell id="TVhmCK1QDhyFKudb4yv_-53" value="participa&lt;br&gt;" style="shape=rhombus;perimeter=rhombusPerimeter;whiteSpace=wrap;html=1;align=center;rotation=-30;" parent="1" vertex="1">
          <mxGeometry x="390" y="258.84" width="90" height="40" as="geometry" />
        </mxCell>
        <mxCell id="TVhmCK1QDhyFKudb4yv_-55" value="ranking" style="ellipse;whiteSpace=wrap;html=1;align=center;" parent="1" vertex="1">
          <mxGeometry x="400" y="220" width="60" height="30" as="geometry" />
        </mxCell>
        <mxCell id="TVhmCK1QDhyFKudb4yv_-57" value="nombre_torneo" style="ellipse;whiteSpace=wrap;html=1;align=center;fontStyle=4;fillColor=#66BDFF;" parent="1" vertex="1">
          <mxGeometry x="680" y="200" width="90" height="50" as="geometry" />
        </mxCell>
        <mxCell id="TVhmCK1QDhyFKudb4yv_-59" style="edgeStyle=none;rounded=0;orthogonalLoop=1;jettySize=auto;html=1;entryX=1;entryY=1;entryDx=0;entryDy=0;" parent="1" source="TVhmCK1QDhyFKudb4yv_-58" target="TVhmCK1QDhyFKudb4yv_-5" edge="1">
          <mxGeometry relative="1" as="geometry" />
        </mxCell>
        <mxCell id="TVhmCK1QDhyFKudb4yv_-58" value="fide" style="ellipse;whiteSpace=wrap;html=1;align=center;" parent="1" vertex="1">
          <mxGeometry x="370" y="380" width="60" height="30" as="geometry" />
        </mxCell>
        <mxCell id="0aDVTXw7b1kCWrRwDKC4-6" value="N" style="text;html=1;align=center;verticalAlign=middle;resizable=0;points=[];autosize=1;strokeColor=none;fillColor=none;" vertex="1" parent="1">
          <mxGeometry x="480" y="210" width="30" height="30" as="geometry" />
        </mxCell>
        <mxCell id="0aDVTXw7b1kCWrRwDKC4-7" value="n" style="text;html=1;align=center;verticalAlign=middle;resizable=0;points=[];autosize=1;strokeColor=none;fillColor=none;" vertex="1" parent="1">
          <mxGeometry x="360" y="298.84000000000003" width="30" height="30" as="geometry" />
        </mxCell>
        <mxCell id="0aDVTXw7b1kCWrRwDKC4-8" value="n:N" style="text;html=1;align=center;verticalAlign=middle;resizable=0;points=[];autosize=1;strokeColor=none;fillColor=none;" vertex="1" parent="1">
          <mxGeometry x="440" y="285" width="40" height="30" as="geometry" />
        </mxCell>
        <mxCell id="0aDVTXw7b1kCWrRwDKC4-11" style="edgeStyle=orthogonalEdgeStyle;rounded=0;orthogonalLoop=1;jettySize=auto;html=1;entryX=0;entryY=0.5;entryDx=0;entryDy=0;" edge="1" parent="1" source="0aDVTXw7b1kCWrRwDKC4-10" target="TVhmCK1QDhyFKudb4yv_-5">
          <mxGeometry relative="1" as="geometry" />
        </mxCell>
        <mxCell id="0aDVTXw7b1kCWrRwDKC4-10" value="huesped" style="ellipse;whiteSpace=wrap;html=1;align=center;" vertex="1" parent="1">
          <mxGeometry x="140" y="315" width="60" height="30" as="geometry" />
        </mxCell>
        <mxCell id="0aDVTXw7b1kCWrRwDKC4-13" value="" style="edgeStyle=orthogonalEdgeStyle;rounded=0;orthogonalLoop=1;jettySize=auto;html=1;" edge="1" parent="1" source="TVhmCK1QDhyFKudb4yv_-5" target="0aDVTXw7b1kCWrRwDKC4-12">
          <mxGeometry relative="1" as="geometry">
            <mxPoint x="360" y="330" as="sourcePoint" />
            <mxPoint x="530" y="330" as="targetPoint" />
          </mxGeometry>
        </mxCell>
        <mxCell id="0aDVTXw7b1kCWrRwDKC4-12" value="gana" style="shape=rhombus;perimeter=rhombusPerimeter;whiteSpace=wrap;html=1;align=center;" vertex="1" parent="1">
          <mxGeometry x="400" y="310" width="80" height="40" as="geometry" />
        </mxCell>
        <mxCell id="0aDVTXw7b1kCWrRwDKC4-14" value="1" style="text;html=1;align=center;verticalAlign=middle;resizable=0;points=[];autosize=1;strokeColor=none;fillColor=none;" vertex="1" parent="1">
          <mxGeometry x="355" y="328" width="30" height="30" as="geometry" />
        </mxCell>
        <mxCell id="0aDVTXw7b1kCWrRwDKC4-15" value="N" style="text;html=1;align=center;verticalAlign=middle;resizable=0;points=[];autosize=1;strokeColor=none;fillColor=none;" vertex="1" parent="1">
          <mxGeometry x="505" y="328" width="30" height="30" as="geometry" />
        </mxCell>
        <mxCell id="0aDVTXw7b1kCWrRwDKC4-16" value="1:N" style="text;html=1;align=center;verticalAlign=middle;resizable=0;points=[];autosize=1;strokeColor=none;fillColor=none;" vertex="1" parent="1">
          <mxGeometry x="420" y="350" width="40" height="30" as="geometry" />
        </mxCell>
        <mxCell id="0aDVTXw7b1kCWrRwDKC4-18" style="rounded=0;orthogonalLoop=1;jettySize=auto;html=1;exitX=1;exitY=1;exitDx=0;exitDy=0;entryX=0;entryY=0;entryDx=0;entryDy=0;" edge="1" parent="1" source="0aDVTXw7b1kCWrRwDKC4-17" target="TVhmCK1QDhyFKudb4yv_-5">
          <mxGeometry relative="1" as="geometry" />
        </mxCell>
        <mxCell id="0aDVTXw7b1kCWrRwDKC4-17" value="categoria" style="ellipse;whiteSpace=wrap;html=1;align=center;" vertex="1" parent="1">
          <mxGeometry x="140" y="268.84000000000003" width="60" height="30" as="geometry" />
        </mxCell>
        <mxCell id="0aDVTXw7b1kCWrRwDKC4-23" style="rounded=0;orthogonalLoop=1;jettySize=auto;html=1;entryX=1;entryY=0.75;entryDx=0;entryDy=0;exitX=0;exitY=0;exitDx=0;exitDy=0;endArrow=none;endFill=0;" edge="1" parent="1" source="0aDVTXw7b1kCWrRwDKC4-24" target="TVhmCK1QDhyFKudb4yv_-8">
          <mxGeometry relative="1" as="geometry">
            <mxPoint x="710" y="335" as="sourcePoint" />
          </mxGeometry>
        </mxCell>
        <mxCell id="0aDVTXw7b1kCWrRwDKC4-22" style="rounded=0;orthogonalLoop=1;jettySize=auto;html=1;entryX=0.75;entryY=1;entryDx=0;entryDy=0;exitX=0.419;exitY=0.056;exitDx=0;exitDy=0;exitPerimeter=0;endArrow=none;endFill=0;" edge="1" parent="1" source="0aDVTXw7b1kCWrRwDKC4-25" target="TVhmCK1QDhyFKudb4yv_-8">
          <mxGeometry relative="1" as="geometry">
            <mxPoint x="710" y="395.0000000000002" as="sourcePoint" />
          </mxGeometry>
        </mxCell>
        <mxCell id="0aDVTXw7b1kCWrRwDKC4-24" value="cantidad" style="ellipse;whiteSpace=wrap;html=1;align=center;" vertex="1" parent="1">
          <mxGeometry x="655" y="427.5" width="75" height="25" as="geometry" />
        </mxCell>
        <mxCell id="0aDVTXw7b1kCWrRwDKC4-25" value="puesto" style="ellipse;whiteSpace=wrap;html=1;align=center;" vertex="1" parent="1">
          <mxGeometry x="580" y="405" width="75" height="25" as="geometry" />
        </mxCell>
        <mxCell id="0aDVTXw7b1kCWrRwDKC4-27" value="nombre_premio" style="ellipse;whiteSpace=wrap;html=1;align=center;fontStyle=4;strokeColor=#000000;fillColor=#66BDFF;" vertex="1" parent="1">
          <mxGeometry x="430" y="395" width="90" height="45" as="geometry" />
        </mxCell>
        <mxCell id="0aDVTXw7b1kCWrRwDKC4-28" value="concede" style="shape=rhombus;perimeter=rhombusPerimeter;whiteSpace=wrap;html=1;align=center;" vertex="1" parent="1">
          <mxGeometry x="537.5" y="240" width="85" height="50" as="geometry" />
        </mxCell>
        <mxCell id="0aDVTXw7b1kCWrRwDKC4-30" value="1" style="text;html=1;align=center;verticalAlign=middle;resizable=0;points=[];autosize=1;strokeColor=none;fillColor=none;" vertex="1" parent="1">
          <mxGeometry x="600" y="228.84" width="30" height="30" as="geometry" />
        </mxCell>
        <mxCell id="0aDVTXw7b1kCWrRwDKC4-31" value="N" style="text;html=1;align=center;verticalAlign=middle;resizable=0;points=[];autosize=1;strokeColor=none;fillColor=none;" vertex="1" parent="1">
          <mxGeometry x="592.5" y="285" width="30" height="30" as="geometry" />
        </mxCell>
        <mxCell id="0aDVTXw7b1kCWrRwDKC4-32" value="1:N" style="text;html=1;align=center;verticalAlign=middle;resizable=0;points=[];autosize=1;strokeColor=none;fillColor=none;" vertex="1" parent="1">
          <mxGeometry x="620" y="248" width="40" height="30" as="geometry" />
        </mxCell>
        <mxCell id="0aDVTXw7b1kCWrRwDKC4-58" style="rounded=0;orthogonalLoop=1;jettySize=auto;html=1;entryX=1;entryY=0.5;entryDx=0;entryDy=0;exitX=0;exitY=0.5;exitDx=0;exitDy=0;endArrow=none;endFill=0;" edge="1" parent="1" source="0aDVTXw7b1kCWrRwDKC4-59" target="TVhmCK1QDhyFKudb4yv_-8">
          <mxGeometry relative="1" as="geometry">
            <mxPoint x="720.5295949824019" y="354.129967045802" as="sourcePoint" />
          </mxGeometry>
        </mxCell>
        <mxCell id="0aDVTXw7b1kCWrRwDKC4-59" value="grupo" style="ellipse;whiteSpace=wrap;html=1;align=center;fontStyle=4;fillColor=#66BDFF;" vertex="1" parent="1">
          <mxGeometry x="710" y="392.5" width="70" height="35" as="geometry" />
        </mxCell>
        <mxCell id="0aDVTXw7b1kCWrRwDKC4-61" style="rounded=0;orthogonalLoop=1;jettySize=auto;html=1;exitX=0;exitY=0.5;exitDx=0;exitDy=0;endArrow=none;endFill=0;" edge="1" parent="1" source="0aDVTXw7b1kCWrRwDKC4-60">
          <mxGeometry relative="1" as="geometry">
            <mxPoint x="630" y="330" as="targetPoint" />
          </mxGeometry>
        </mxCell>
        <mxCell id="0aDVTXw7b1kCWrRwDKC4-60" value="&lt;span style=&quot;border-bottom: 1px dotted&quot;&gt;nom_jug&lt;/span&gt;" style="ellipse;whiteSpace=wrap;html=1;align=center;fillColor=#FFE605;" vertex="1" parent="1">
          <mxGeometry x="740" y="362.5" width="70" height="30" as="geometry" />
        </mxCell>
        <mxCell id="0aDVTXw7b1kCWrRwDKC4-63" style="rounded=0;orthogonalLoop=1;jettySize=auto;html=1;exitX=0;exitY=0.5;exitDx=0;exitDy=0;entryX=1;entryY=0.25;entryDx=0;entryDy=0;endArrow=none;endFill=0;" edge="1" parent="1" source="0aDVTXw7b1kCWrRwDKC4-62" target="TVhmCK1QDhyFKudb4yv_-8">
          <mxGeometry relative="1" as="geometry" />
        </mxCell>
        <mxCell id="0aDVTXw7b1kCWrRwDKC4-62" value="&lt;span style=&quot;border-bottom: 1px dotted&quot;&gt;nom_torn&lt;/span&gt;" style="ellipse;whiteSpace=wrap;html=1;align=center;fillColor=#FFE605;" vertex="1" parent="1">
          <mxGeometry x="740" y="320" width="70" height="30" as="geometry" />
        </mxCell>
      </root>
    </mxGraphModel>
  </diagram>
</mxfile>
